Coordinates
version=1
nRows=12
nColumns=42
inDegrees=yes

Units are S.I. units (second, meters, Newtons, ...)
If the header above contains a line with 'inDegrees', this indicates whether rotational values are in degrees (yes) or radians (no).

endheader
time	pelvis_tilt	pelvis_list	pelvis_rotation	pelvis_tx	pelvis_ty	pelvis_tz	hip_flexion_r	hip_adduction_r	hip_rotation_r	knee_angle_r	knee_adduction_r	knee_angle_r_beta	ankle_angle_r	subtalar_angle_r	mtp_angle_r	hip_flexion_l	hip_adduction_l	hip_rotation_l	knee_angle_l	knee_adduction_l	knee_angle_l_beta	ankle_angle_l	subtalar_angle_l	mtp_angle_l	lumbar_extension	lumbar_bending	lumbar_rotation	arm_flex_r	arm_add_r	arm_rot_r	elbow_flex_r	pro_sup_r	wrist_flex_r	wrist_dev_r	arm_flex_l	arm_add_l	arm_rot_l	elbow_flex_l	pro_sup_l	wrist_flex_l	wrist_dev_l
      6.50000000	      2.22743580	    -10.48999112	    -13.72189830	     -0.30324290	      0.84803345	      0.28164986	     -2.79081341	      6.27741492	    -18.38057013	     20.88945506	     -2.94971198	      0.36458977	     15.88767786	     23.31840579	     -7.50004953	     14.17228472	    -18.55512835	    -29.67850844	     34.85863609	     -6.21296601	      0.60839797	     18.22098337	     27.64462111	     -7.50004953	    -29.15266488	      7.39810761	      4.19603432	     -8.19651063	     -1.99766207	    -11.72688786	    103.85945108	     90.00000001	      0.00000000	      0.00000000	      3.21506364	     -7.96013043	    -18.13529780	     47.70589904	     90.00000001	      0.00000000	      0.00000000
      6.51000000	      1.94328390	    -10.63197963	    -13.98339024	     -0.30075495	      0.84939100	      0.27971684	     -2.52284801	      6.34073405	    -18.51034557	     21.01808510	     -3.01871059	      0.36683479	     15.61115499	     23.18339223	     -7.50004932	     13.82106633	    -18.67898648	    -30.02601614	     34.32968715	     -5.84085925	      0.59916607	     18.26211102	     27.66207976	     -7.50004932	    -28.91034788	      7.61810032	      4.14318985	     -8.21341711	     -1.89262687	    -11.60705358	    104.08881841	     90.00000001	      0.00000000	      0.00000000	      3.14221864	     -8.03648675	    -18.14900301	     47.72359872	     90.00000001	      0.00000000	      0.00000000
      6.52000000	      2.40671435	    -10.48639040	    -14.77700178	     -0.29806570	      0.85200060	      0.27826838	     -2.88890613	      5.83577726	    -18.01475814	     21.37773030	     -3.16741377	      0.37311178	     14.24513685	     22.51060833	     -7.50004778	     12.05684958	    -18.24947317	    -31.68729495	     32.91986611	     -5.69491574	      0.57456005	     17.89142332	     28.98745674	     -7.50004778	    -29.43341608	      7.08327895	      4.64758938	     -8.27152019	     -1.97218653	    -11.34702151	    104.41877187	     90.00000001	      0.00000000	      0.00000000	      3.22904933	     -8.08496819	    -18.17894471	     47.85815400	     90.00000001	      0.00000000	      0.00000000
      6.53000000	      2.14095695	    -10.64450132	    -15.07637999	     -0.29559547	      0.85330495	      0.27648536	     -2.58627777	      5.93183753	    -18.09361218	     21.59802816	     -3.31986671	      0.37695670	     13.88094442	     22.36847407	     -7.50004751	     11.61288760	    -18.36532636	    -32.08151468	     32.26382274	     -5.30729399	      0.56310994	     17.91143758	     29.09214305	     -7.50004751	    -29.19609159	      7.30291313	      4.66840408	     -8.30586743	     -1.89097392	    -11.21578579	    104.68079979	     90.00000001	      0.00000000	      0.00000000	      3.11502492	     -8.19563862	    -18.20907612	     47.88896132	     90.00000001	      0.00000000	      0.00000000
      6.54000000	      2.57839347	    -10.50927773	    -15.73042200	     -0.29299724	      0.85570680	      0.27490951	     -2.91312673	      5.45614160	    -17.50495787	     21.94321389	     -3.41951261	      0.38298133	     12.74644725	     21.66674691	     -7.50004583	      9.99620016	    -17.89086859	    -33.67573461	     30.88969772	     -5.14219418	      0.53912693	     17.41241460	     30.56640752	     -7.50004583	    -29.68042375	      6.84345078	      5.05629840	     -8.35655667	     -1.93141097	    -11.02981866	    104.95491838	     90.00000001	      0.00000000	      0.00000000	      3.22427020	     -8.26163206	    -18.21899912	     48.09244016	     90.00000001	      0.00000000	      0.00000000
      6.55000000	      2.43012299	    -10.61219077	    -16.10822063	     -0.29066827	      0.85704264	      0.27323477	     -2.60694335	      5.50550450	    -17.38817345	     22.34540635	     -3.72785491	      0.39000091	     12.13423364	     21.46625189	     -7.50004534	      9.37411122	    -17.89576186	    -34.16042118	     30.15137104	     -4.69634100	      0.52624070	     17.36496625	     30.82014289	     -7.50004534	    -29.58215818	      6.93430008	      5.25590925	     -8.41248249	     -1.95286349	    -10.88668228	    105.18708278	     90.00000001	      0.00000000	      0.00000000	      3.21695307	     -8.33309955	    -18.24063263	     48.21549711	     90.00000001	      0.00000000	      0.00000000
      6.56000000	      2.28306617	    -10.72325112	    -16.29859740	     -0.28810357	      0.85818921	      0.27132792	     -2.39256158	      5.52147759	    -17.25506638	     22.62142024	     -3.85142398	      0.39481826	     11.73363627	     21.31659414	     -7.50004510	      8.88027116	    -17.88785798	    -34.66820258	     29.51862658	     -4.36408390	      0.51519722	     17.31686442	     30.92811593	     -7.50004510	    -29.40725887	      7.14972513	      5.17765409	     -8.39695305	     -1.85949392	    -10.84296107	    105.40816690	     90.00000001	      0.00000000	      0.00000000	      3.11063290	     -8.45526040	    -18.27192281	     48.25679917	     90.00000001	      0.00000000	      0.00000000
      6.57000000	      2.28348333	    -10.76436877	    -16.71896890	     -0.28571109	      0.85954562	      0.26973986	     -2.16543947	      5.48570108	    -16.91590775	     23.14540762	     -4.20371263	      0.40396357	     10.98534269	     21.01217859	     -7.50004479	      8.01574552	    -17.70567758	    -35.27677754	     28.55789649	     -3.93791740	      0.49842932	     17.15685645	     31.25014674	     -7.50004479	    -29.43333812	      7.12330694	      5.40611579	     -8.43743098	     -1.86901349	    -10.75170485	    105.60364454	     90.00000001	      0.00000000	      0.00000000	      3.08444115	     -8.53385511	    -18.30443588	     48.42308397	     90.00000001	      0.00000000	      0.00000000
      6.58000000	      2.50523471	    -10.66858260	    -17.13142090	     -0.28325486	      0.86106873	      0.26809317	     -2.17204817	      5.18343868	    -16.34432758	     23.63856128	     -4.37940041	      0.41257072	     10.20693366	     20.46423965	     -7.50004439	      6.93562927	    -17.28067174	    -36.04112983	     27.56036046	     -3.54306276	      0.48101903	     16.82079713	     31.72340603	     -7.50004439	    -29.63837644	      6.87951738	      5.63133762	     -8.45607272	     -1.84254364	    -10.71352550	    105.72071830	     90.00000001	      0.00000000	      0.00000000	      3.11848788	     -8.62999496	    -18.32864875	     48.64506477	     90.00000001	      0.00000000	      0.00000000
      6.59000000	      3.01947016	    -10.49813513	    -17.38007155	     -0.28050635	      0.86286111	      0.26613746	     -2.64314795	      4.65754327	    -15.30295047	     23.87388071	     -4.13299013	      0.41667782	      9.62457851	     18.87445249	     -7.50004298	      5.62521404	    -16.51399748	    -36.80436684	     26.42577807	     -3.39143405	      0.46121683	     16.10004537	     32.39135479	     -7.50004298	    -30.06194739	      6.53878591	      5.68660716	     -8.45024028	     -1.81008672	    -10.75567155	    105.72837159	     90.00000001	      0.00000000	      0.00000000	      3.17717460	     -8.75925915	    -18.26460529	     48.90117616	     90.00000001	      0.00000000	      0.00000000
      6.60000000	      2.96529468	    -10.61115803	    -17.37740317	     -0.27789981	      0.86355177	      0.26418721	     -2.47356871	      4.77437772	    -14.99300211	     24.23793139	     -4.41046179	      0.42303171	      9.37459908	     18.72100287	     -7.50004276	      5.28775070	    -16.43303186	    -36.91456995	     26.10960665	     -3.17285954	      0.45569860	     16.12908225	     32.36112592	     -7.50004276	    -29.93790103	      6.80381828	      5.57712793	     -8.48412858	     -1.76852032	    -10.78555721	    105.76010381	     90.00000001	      0.00000000	      0.00000000	      3.12247826	     -8.86810123	    -18.28148208	     48.95766122	     90.00000001	      0.00000000	      0.00000000
      6.61000000	      3.29031858	    -10.44869504	    -17.76420905	     -0.27541917	      0.86482359	      0.26260310	     -2.53875391	      4.41846377	    -13.83557933	     24.85532750	     -4.40891589	      0.43380730	      8.65224999	     16.91545294	     -7.50004130	      4.15711198	    -15.75012575	    -37.27606766	     24.99674661	     -2.76075346	      0.43627553	     15.71948223	     32.28483801	     -7.50004130	    -30.18085433	      6.46137194	      5.80854438	     -8.52004961	     -1.75693000	    -10.87416248	    105.68731685	     90.00000001	      0.00000000	      0.00000000	      3.14451064	     -8.99311035	    -18.24196730	     49.29269616	     90.00000001	      0.00000000	      0.00000000
